<svg version="1.1" xmlns="http://www.w3.org/2000/svg" xmlns:xlink="http://www.w3.org/1999/xlink" x="0px" y="0px"
	 viewBox="0 0 323 441.5" style="enable-background:new 0 0 323 441.5;" xml:space="preserve">
<g>
	<path style="fill:#646464;" d="M171.2,0c3.1,0.4,6.2,0.7,9.2,1.1C205.1,4,228,12,248.7,25.7c37.3,24.6,61.1,58.7,70.6,102.4
		c6.5,29.8,4.3,59.2-6.1,87.8c-1.6,4.4-3.9,8.6-6.1,13.2c-3.9-7.7-9-13.9-15.5-19c-6.5-5.1-13.8-8.3-22-10.1
		c9.3-27.2,9.1-54.1-1.4-80.8c-8.7-22.3-23.3-40-43.1-53.4c-38.6-26.2-90.6-25.8-129,0.9C82.3,76.4,71,88.5,62.3,103.2
		c-8.6,14.6-13.8,30.4-15.3,47.3c-1.6,16.9,0.4,33.4,6.2,49.5c-17.3,4-29.8,13.9-38,30.1c-2.2-5.5-4.3-10.5-6.1-15.6
		c-7.7-21.8-10.4-44.2-8.4-67.1c3.5-38.4,18.8-71.4,45.7-99c22.4-22.9,49.3-37.8,80.6-44.6c7.7-1.7,15.6-2.3,23.5-3.4
		c0.6-0.1,1.1-0.2,1.6-0.3C158.4,0,164.8,0,171.2,0z"/>
	<path style="fill:#646464;" d="M279,252.6c0,3.8-1.1,7.3-3,10.5c-12.1,21-24.2,42-36.4,63c-19.9,34.5-39.8,68.9-59.7,103.5
		c-3.2,5.5-7.2,9.7-13.5,11.3c-8.9,2.2-17.7-1.4-22.3-9.4c-6.3-10.8-12.5-21.7-18.8-32.5C99.2,353.8,73,308.5,46.9,263.3
		c-6.4-11.1-2.1-24.3,9.4-29.1c4.6-2,4.7-1.9,7.4,2.3c18.8,29.2,45.1,47.4,79.4,52.8c36.8,5.8,69.2-4.4,96.8-29.6
		c8.2-7.4,14.9-16.1,20.5-25.6c0.6-1.1,1.2-1.3,2.4-1C272.2,234.9,278.9,243.2,279,252.6z"/>
	<path style="fill:#646464;" d="M257.7,199.3c-8.3,1-15.3,4.6-21.1,10.6c-17.2-28.1-41.7-44.1-75-44.2
		c-33.3-0.1-57.9,15.9-75.3,44.1c-5.7-5.9-12.7-9.6-21.1-10.6c11.3-30.9,45.4-63.6,92.6-65.2C208.9,132.4,245.6,166.7,257.7,199.3z"
		/>
	<path style="fill:#646464;" d="M205.8,243.8c-8.4-18.6-22.2-29.3-42.5-30.5c-18.5-1.1-38,9.8-46.3,30.8c-3.1-2.4-6.1-4.7-9-7.1
		c-2.2-1.9-4.2-4.1-6.4-6.1c-0.9-0.8-1-1.6-0.6-2.7c7.9-19.6,21.7-32.9,41.9-39c32.3-9.8,66.3,7.1,78.6,38.6
		c0.6,1.5,0.4,2.4-0.7,3.5C216.4,236,211.4,240.2,205.8,243.8z"/>
	<path style="fill:#646464;" d="M191.1,251.5c-19.9,7.5-39.6,7.5-59.3,0c2.3-11.8,15.5-21.9,28.8-22.2
		C174.5,228.9,187.9,238.6,191.1,251.5z"/>
</g>
</svg>
