<?xml version="1.0" standalone="no"?>
<!DOCTYPE svg PUBLIC "-//W3C//DTD SVG 20010904//EN"
 "http://www.w3.org/TR/2001/REC-SVG-20010904/DTD/svg10.dtd">
<svg version="1.0" xmlns="http://www.w3.org/2000/svg"
 width="260.000000pt" height="260.000000pt" viewBox="0 0 260.000000 260.000000"
 preserveAspectRatio="xMidYMid meet">
<metadata>
Created by potrace 1.11, written by Peter Selinger 2001-2013
</metadata>
<g transform="translate(0.000000,260.000000) scale(0.100000,-0.100000)"
fill="#000000" stroke="none">
<path d="M0 1300 l0 -1300 1300 0 1300 0 0 1300 0 1300 -1300 0 -1300 0 0
-1300z m1435 1195 c498 -87 819 -585 694 -1078 -11 -42 -27 -93 -36 -112 l-16
-34 -29 40 c-29 41 -105 95 -145 105 -27 7 -27 1 -7 94 43 201 -22 414 -172
564 -307 308 -818 217 -1006 -180 -55 -117 -72 -270 -43 -389 19 -79 19 -82
-7 -89 -42 -10 -117 -65 -147 -106 l-30 -42 -16 39 c-62 146 -78 370 -38 533
112 451 544 734 998 655z m-11 -735 c106 -27 168 -63 252 -145 69 -67 131
-165 119 -185 -4 -6 -15 -10 -25 -10 -10 0 -32 -11 -48 -25 l-30 -25 -21 33
c-28 46 -119 131 -167 155 -66 33 -144 52 -219 52 -75 0 -153 -19 -219 -52
-48 -24 -139 -109 -167 -155 l-21 -33 -30 25 c-16 14 -38 25 -48 25 -31 0 -32
17 -6 68 34 66 118 157 189 203 54 35 148 72 207 82 64 11 163 5 234 -13z m-8
-292 c69 -25 135 -84 170 -153 l29 -56 -40 -35 c-22 -18 -42 -34 -45 -33 -3 0
-18 21 -35 47 -18 27 -50 59 -79 77 -44 27 -58 30 -131 30 -73 0 -87 -3 -131
-30 -29 -18 -61 -50 -79 -77 -16 -26 -32 -47 -35 -47 -3 -1 -23 15 -45 33
l-40 34 22 46 c79 161 261 230 439 164z m-63 -222 c35 -14 87 -69 87 -91 0 -8
-18 -19 -42 -26 -89 -24 -268 -7 -268 26 0 21 51 76 85 91 39 17 97 17 138 0z
m-568 -63 c111 -155 270 -239 470 -250 118 -6 205 11 302 59 80 39 186 128
231 193 38 57 51 63 85 40 32 -20 51 -67 44 -104 -7 -36 -530 -947 -563 -981
-19 -19 -35 -25 -69 -25 -34 0 -50 6 -69 25 -37 38 -557 947 -563 985 -8 52
33 115 77 114 8 0 33 -25 55 -56z"/>
</g>
</svg>
